<svg width="15" height="20" viewBox="0 0 15 20" fill="none" xmlns="http://www.w3.org/2000/svg">
<path id="Vector" d="M7.5 20C11.6425 20 15 17.5 15 13.125C15 11.25 14.375 8.125 11.875 5.625C12.1875 7.5 10.3125 8.125 10.3125 8.125C11.25 5 8.75 0.625 5 0C5.44625 2.5 5.625 5 2.5 7.5C0.9375 8.75 0 10.9113 0 13.125C0 17.5 3.3575 20 7.5 20ZM7.5 18.75C5.42875 18.75 3.75 17.5 3.75 15.3125C3.75 14.375 4.0625 12.8125 5.3125 11.5625C5.15625 12.5 6.25 13.125 6.25 13.125C5.78125 11.5625 6.875 9.0625 8.75 8.75C8.52625 10 8.4375 11.25 10 12.5C10.7812 13.125 11.25 14.205 11.25 15.3125C11.25 17.5 9.57125 18.75 7.5 18.75Z" fill="black"/>
</svg>
