<svg width="19" height="26" viewBox="0 0 19 26" fill="none" xmlns="http://www.w3.org/2000/svg">
<path id="Vector" d="M9.5 26C14.7472 26 19 22.75 19 17.0625C19 14.625 18.2083 10.5625 15.0417 7.3125C15.4375 9.75 13.0625 10.5625 13.0625 10.5625C14.25 6.5 11.0833 0.8125 6.33333 0C6.89858 3.25 7.125 6.5 3.16667 9.75C1.1875 11.375 0 14.1846 0 17.0625C0 22.75 4.25283 26 9.5 26ZM9.5 24.375C6.87642 24.375 4.75 22.75 4.75 19.9062C4.75 18.6875 5.14583 16.6562 6.72917 15.0312C6.53125 16.25 7.91667 17.0625 7.91667 17.0625C7.32292 15.0312 8.70833 11.7812 11.0833 11.375C10.7999 13 10.6875 14.625 12.6667 16.25C13.6562 17.0625 14.25 18.4665 14.25 19.9062C14.25 22.75 12.1236 24.375 9.5 24.375Z" fill="#B81414"/>
</svg>
