<svg width="288" height="24" viewBox="0 0 288 24" fill="none" xmlns="http://www.w3.org/2000/svg">
<rect y="17.3091" width="287.947" height="3.83354" rx="1.91677" fill="#D9D9D9"/>
<rect y="16" width="287.947" height="4.01716" rx="2.00858" fill="url(#paint0_linear_535_305)"/>
<path d="M196.297 23.7422C199.331 23.7422 201.793 21.2936 201.793 18.2711C201.793 15.2486 199.331 12.8 196.297 12.8C193.262 12.8 190.8 15.2486 190.8 18.2711C190.8 21.2936 193.262 23.7422 196.297 23.7422Z" fill="white" stroke="#A7A5A5" stroke-width="0.4"/>
<path d="M202.35 1.85049e-06L190.649 8.27614e-07C190.531 0.000382287 190.415 0.0339507 190.313 0.0970925C190.212 0.160234 190.13 0.250557 190.075 0.358341C190.02 0.466125 189.994 0.587288 190.001 0.708787C190.008 0.830286 190.047 0.947519 190.114 1.04787L195.964 9.73002C196.207 10.09 196.791 10.09 197.034 9.73002L202.884 1.04787C202.952 0.94773 202.991 0.830437 202.999 0.708735C203.006 0.587034 202.981 0.46558 202.926 0.357568C202.871 0.249556 202.788 0.159116 202.686 0.0960769C202.585 0.0330381 202.468 -0.000189828 202.35 1.85049e-06Z" fill="black"/>
<defs>
<linearGradient id="paint0_linear_535_305" x1="0" y1="16" x2="287.947" y2="16" gradientUnits="userSpaceOnUse">
<stop stop-color="#B81414"/>
<stop offset="0.489583" stop-color="#E7BC24" stop-opacity="0.988794"/>
<stop offset="1" stop-color="#4FDB0E" stop-opacity="0.81"/>
</linearGradient>
</defs>
</svg>
